<svg width="1024" height="512" viewBox="0 0 1024 512" fill="none" xmlns="http://www.w3.org/2000/svg">
<rect x="72" y="66" width="880" height="380" rx="95" fill="url(#paint0_linear_444_4)"/>
<path d="M834.009 254.26C824.769 254.26 816.489 252.76 809.169 249.76C801.849 246.76 795.969 242.32 791.529 236.44C787.209 230.56 784.929 223.48 784.689 215.2H817.449C817.929 219.88 819.549 223.48 822.309 226C825.069 228.4 828.669 229.6 833.109 229.6C837.669 229.6 841.269 228.58 843.909 226.54C846.549 224.38 847.869 221.44 847.869 217.72C847.869 214.6 846.789 212.02 844.629 209.98C842.589 207.94 840.009 206.26 836.889 204.94C833.889 203.62 829.569 202.12 823.929 200.44C815.769 197.92 809.109 195.4 803.949 192.88C798.789 190.36 794.349 186.64 790.629 181.72C786.909 176.8 785.049 170.38 785.049 162.46C785.049 150.7 789.309 141.52 797.829 134.92C806.349 128.2 817.449 124.84 831.129 124.84C845.049 124.84 856.269 128.2 864.789 134.92C873.309 141.52 877.869 150.76 878.469 162.64H845.169C844.929 158.56 843.429 155.38 840.669 153.1C837.909 150.7 834.369 149.5 830.049 149.5C826.329 149.5 823.329 150.52 821.049 152.56C818.769 154.48 817.629 157.3 817.629 161.02C817.629 165.1 819.549 168.28 823.389 170.56C827.229 172.84 833.229 175.3 841.389 177.94C849.549 180.7 856.149 183.34 861.189 185.86C866.349 188.38 870.789 192.04 874.509 196.84C878.229 201.64 880.089 207.82 880.089 215.38C880.089 222.58 878.229 229.12 874.509 235C870.909 240.88 865.629 245.56 858.669 249.04C851.709 252.52 843.489 254.26 834.009 254.26Z" fill="black"/>
<path d="M772.841 126.64V151.3H739.361V253H708.581V151.3H675.101V126.64H772.841Z" fill="black"/>
<path d="M659.635 126.64V253H628.855V126.64H659.635Z" fill="black"/>
<path d="M545.414 126.64C558.734 126.64 570.374 129.28 580.334 134.56C590.294 139.84 597.974 147.28 603.374 156.88C608.894 166.36 611.654 177.34 611.654 189.82C611.654 202.18 608.894 213.16 603.374 222.76C597.974 232.36 590.234 239.8 580.154 245.08C570.194 250.36 558.614 253 545.414 253H498.074V126.64H545.414ZM543.434 226.36C555.074 226.36 564.134 223.18 570.614 216.82C577.094 210.46 580.334 201.46 580.334 189.82C580.334 178.18 577.094 169.12 570.614 162.64C564.134 156.16 555.074 152.92 543.434 152.92H528.854V226.36H543.434Z" fill="black"/>
<path d="M431.471 151.3V176.86H472.691V200.62H431.471V228.34H478.091V253H400.691V126.64H478.091V151.3H431.471Z" fill="black"/>
<path d="M347.709 253L321.429 205.3H314.049V253H283.269V126.64H334.929C344.889 126.64 353.349 128.38 360.309 131.86C367.389 135.34 372.669 140.14 376.149 146.26C379.629 152.26 381.369 158.98 381.369 166.42C381.369 174.82 378.969 182.32 374.169 188.92C369.489 195.52 362.529 200.2 353.289 202.96L382.449 253H347.709ZM314.049 183.52H333.129C338.769 183.52 342.969 182.14 345.729 179.38C348.609 176.62 350.049 172.72 350.049 167.68C350.049 162.88 348.609 159.1 345.729 156.34C342.969 153.58 338.769 152.2 333.129 152.2H314.049V183.52Z" fill="black"/>
<path d="M140.94 189.64C140.94 177.16 143.64 166.06 149.04 156.34C154.44 146.5 161.94 138.88 171.54 133.48C181.26 127.96 192.24 125.2 204.48 125.2C219.48 125.2 232.32 129.16 243 137.08C253.68 145 260.82 155.8 264.42 169.48H230.58C228.06 164.2 224.46 160.18 219.78 157.42C215.22 154.66 210 153.28 204.12 153.28C194.64 153.28 186.96 156.58 181.08 163.18C175.2 169.78 172.26 178.6 172.26 189.64C172.26 200.68 175.2 209.5 181.08 216.1C186.96 222.7 194.64 226 204.12 226C210 226 215.22 224.62 219.78 221.86C224.46 219.1 228.06 215.08 230.58 209.8H264.42C260.82 223.48 253.68 234.28 243 242.2C232.32 250 219.48 253.9 204.48 253.9C192.24 253.9 181.26 251.2 171.54 245.8C161.94 240.28 154.44 232.66 149.04 222.94C143.64 213.22 140.94 202.12 140.94 189.64Z" fill="black"/>
<rect x="162" y="325" width="700" height="60" rx="30" fill="#FFC888"/>
<rect x="162" y="325" width="536" height="60" rx="30" fill="black"/>
<defs>
<linearGradient id="paint0_linear_444_4" x1="964.892" y1="257.532" x2="71.9989" y2="256.342" gradientUnits="userSpaceOnUse">
<stop stop-color="#F97316"/>
<stop offset="0.33" stop-color="#8B5CF6"/>
<stop offset="0.662154" stop-color="#16A34A"/>
<stop offset="1" stop-color="#0070C0"/>
</linearGradient>
</defs>
</svg>
